<svg id="visual" viewBox="0 0 2000 1000" width="2000" height="1000" xmlns="http://www.w3.org/2000/svg" xmlns:xlink="http://www.w3.org/1999/xlink" version="1.1"><rect x="0" y="0" width="2000" height="1000" fill="#303030"></rect><g fill="none" stroke="#00f92d" stroke-width="8"><circle r="103" cx="1754" cy="607"></circle><circle r="103" cx="1037" cy="166"></circle><circle r="102" cx="634" cy="735"></circle><circle r="102" cx="1284" cy="436"></circle><circle r="102" cx="1331" cy="811"></circle><circle r="102" cx="409" cy="620"></circle><circle r="102" cx="1554" cy="531"></circle><circle r="102" cx="1023" cy="930"></circle><circle r="102" cx="1775" cy="134"></circle><circle r="102" cx="1888" cy="896"></circle><circle r="102" cx="467" cy="176"></circle><circle r="102" cx="1362" cy="222"></circle><circle r="102" cx="776" cy="113"></circle><circle r="102" cx="176" cy="339"></circle><circle r="102" cx="1645" cy="825"></circle><circle r="102" cx="108" cy="698"></circle><circle r="102" cx="106" cy="123"></circle><circle r="102" cx="458" cy="937"></circle><circle r="102" cx="965" cy="689"></circle><circle r="102" cx="841" cy="373"></circle><circle r="102" cx="1971" cy="470"></circle><circle r="102" cx="206" cy="921"></circle><circle r="102" cx="1060" cy="426"></circle><circle r="102" cx="1447" cy="21"></circle><circle r="102" cx="465" cy="400"></circle><circle r="102" cx="703" cy="975"></circle><circle r="102" cx="1986" cy="97"></circle><circle r="102" cx="1695" cy="348"></circle><circle r="102" cx="1990" cy="706"></circle><circle r="102" cx="24" cy="491"></circle><circle r="102" cx="755" cy="564"></circle><circle r="102" cx="333" cy="13"></circle><circle r="102" cx="1463" cy="986"></circle></g></svg>