<svg id="visual" viewBox="0 0 2000 1000" width="2000" height="1000" xmlns="http://www.w3.org/2000/svg" xmlns:xlink="http://www.w3.org/1999/xlink" version="1.1"><g stroke-width="1" stroke-linejoin="bevel"><path d="M1033 492L1019 566L1085 575Z" fill="#00d514" stroke="#00d514"></path><path d="M1085 575L1139 521L1033 492Z" fill="#0f721f" stroke="#0f721f"></path><path d="M1139 521L1077 426L1033 492Z" fill="#0a8a20" stroke="#0a8a20"></path><path d="M1085 575L1176 583L1139 521Z" fill="#00ef00" stroke="#00ef00"></path><path d="M1019 566L1038 672L1085 575Z" fill="#00ef00" stroke="#00ef00"></path><path d="M1085 575L1162 671L1176 583Z" fill="#0f721f" stroke="#0f721f"></path><path d="M885 525L923 627L1019 566Z" fill="#000200" stroke="#000200"></path><path d="M1019 566L923 627L1038 672Z" fill="#00d514" stroke="#00d514"></path><path d="M885 525L1019 566L1033 492Z" fill="#00bb1c" stroke="#00bb1c"></path><path d="M1077 426L968 395L1033 492Z" fill="#000200" stroke="#000200"></path><path d="M1176 583L1207 459L1139 521Z" fill="#113014" stroke="#113014"></path><path d="M1139 521L1207 459L1077 426Z" fill="#124519" stroke="#124519"></path><path d="M1016 268L935 305L968 395Z" fill="#00d514" stroke="#00d514"></path><path d="M1038 672L1162 671L1085 575Z" fill="#0e1c0d" stroke="#0e1c0d"></path><path d="M1176 583L1274 483L1207 459Z" fill="#125b1c" stroke="#125b1c"></path><path d="M914 433L885 525L1033 492Z" fill="#0f721f" stroke="#0f721f"></path><path d="M968 395L914 433L1033 492Z" fill="#00bb1c" stroke="#00bb1c"></path><path d="M1027 809L1103 728L1038 672Z" fill="#125b1c" stroke="#125b1c"></path><path d="M1038 672L1103 728L1162 671Z" fill="#03a21f" stroke="#03a21f"></path><path d="M787 677L923 698L923 627Z" fill="#0f721f" stroke="#0f721f"></path><path d="M923 627L923 698L1038 672Z" fill="#03a21f" stroke="#03a21f"></path><path d="M1327 610L1274 483L1176 583Z" fill="#113014" stroke="#113014"></path><path d="M1274 483L1236 383L1207 459Z" fill="#0e1c0d" stroke="#0e1c0d"></path><path d="M1207 459L1236 383L1077 426Z" fill="#124519" stroke="#124519"></path><path d="M805 408L820 530L885 525Z" fill="#000200" stroke="#000200"></path><path d="M885 525L820 530L923 627Z" fill="#125b1c" stroke="#125b1c"></path><path d="M1274 483L1260 375L1236 383Z" fill="#00d514" stroke="#00d514"></path><path d="M1016 268L968 395L1077 426Z" fill="#000200" stroke="#000200"></path><path d="M1016 268L1077 426L1137 268Z" fill="#00bb1c" stroke="#00bb1c"></path><path d="M968 395L935 305L914 433Z" fill="#113014" stroke="#113014"></path><path d="M914 433L805 408L885 525Z" fill="#00ef00" stroke="#00ef00"></path><path d="M1137 268L1077 426L1236 383Z" fill="#0e1c0d" stroke="#0e1c0d"></path><path d="M923 698L1027 809L1038 672Z" fill="#03a21f" stroke="#03a21f"></path><path d="M1320 702L1327 610L1162 671Z" fill="#03a21f" stroke="#03a21f"></path><path d="M1189 272L1137 268L1236 383Z" fill="#125b1c" stroke="#125b1c"></path><path d="M1207 820L1162 671L1103 728Z" fill="#000200" stroke="#000200"></path><path d="M1162 671L1327 610L1176 583Z" fill="#0e1c0d" stroke="#0e1c0d"></path><path d="M1383 427L1321 328L1260 375Z" fill="#0e1c0d" stroke="#0e1c0d"></path><path d="M935 305L805 408L914 433Z" fill="#125b1c" stroke="#125b1c"></path><path d="M717 540L774 559L820 530Z" fill="#0a8a20" stroke="#0a8a20"></path><path d="M820 530L787 677L923 627Z" fill="#00ef00" stroke="#00ef00"></path><path d="M923 698L914 806L1027 809Z" fill="#0e1c0d" stroke="#0e1c0d"></path><path d="M1260 375L1189 272L1236 383Z" fill="#0e1c0d" stroke="#0e1c0d"></path><path d="M1027 809L1128 822L1103 728Z" fill="#125b1c" stroke="#125b1c"></path><path d="M774 559L787 677L820 530Z" fill="#124519" stroke="#124519"></path><path d="M840 799L914 806L923 698Z" fill="#125b1c" stroke="#125b1c"></path><path d="M1027 809L1098 909L1128 822Z" fill="#0e1c0d" stroke="#0e1c0d"></path><path d="M1207 820L1320 702L1162 671Z" fill="#0e1c0d" stroke="#0e1c0d"></path><path d="M1128 822L1207 820L1103 728Z" fill="#00bb1c" stroke="#00bb1c"></path><path d="M1110 171L988 208L1016 268Z" fill="#0e1c0d" stroke="#0e1c0d"></path><path d="M1016 268L988 208L935 305Z" fill="#0e1c0d" stroke="#0e1c0d"></path><path d="M786 300L728 421L805 408Z" fill="#125b1c" stroke="#125b1c"></path><path d="M1110 171L1016 268L1137 268Z" fill="#00ef00" stroke="#00ef00"></path><path d="M1383 427L1260 375L1274 483Z" fill="#125b1c" stroke="#125b1c"></path><path d="M1260 375L1321 328L1189 272Z" fill="#125b1c" stroke="#125b1c"></path><path d="M728 421L717 540L820 530Z" fill="#0e1c0d" stroke="#0e1c0d"></path><path d="M774 559L695 576L787 677Z" fill="#0e1c0d" stroke="#0e1c0d"></path><path d="M787 677L840 799L923 698Z" fill="#00d514" stroke="#00d514"></path><path d="M722 709L840 799L787 677Z" fill="#0a8a20" stroke="#0a8a20"></path><path d="M1411 496L1274 483L1327 610Z" fill="#0e1c0d" stroke="#0e1c0d"></path><path d="M1411 496L1383 427L1274 483Z" fill="#00d514" stroke="#00d514"></path><path d="M786 300L805 408L935 305Z" fill="#0f721f" stroke="#0f721f"></path><path d="M805 408L728 421L820 530Z" fill="#000200" stroke="#000200"></path><path d="M1417 597L1411 496L1327 610Z" fill="#00bb1c" stroke="#00bb1c"></path><path d="M806 187L786 300L935 305Z" fill="#113014" stroke="#113014"></path><path d="M640 614L695 576L599 461Z" fill="#0a8a20" stroke="#0a8a20"></path><path d="M717 540L695 576L774 559Z" fill="#0a8a20" stroke="#0a8a20"></path><path d="M1390 696L1417 597L1327 610Z" fill="#0f721f" stroke="#0f721f"></path><path d="M1205 174L1137 268L1189 272Z" fill="#0f721f" stroke="#0f721f"></path><path d="M1205 174L1110 171L1137 268Z" fill="#0a8a20" stroke="#0a8a20"></path><path d="M1406 797L1390 696L1320 702Z" fill="#0e1c0d" stroke="#0e1c0d"></path><path d="M1320 702L1390 696L1327 610Z" fill="#124519" stroke="#124519"></path><path d="M995 916L1098 909L1027 809Z" fill="#0f721f" stroke="#0f721f"></path><path d="M1128 822L1204 939L1207 820Z" fill="#00d514" stroke="#00d514"></path><path d="M1207 820L1309 820L1320 702Z" fill="#124519" stroke="#124519"></path><path d="M995 916L1027 809L914 806Z" fill="#113014" stroke="#113014"></path><path d="M695 576L722 709L787 677Z" fill="#00d514" stroke="#00d514"></path><path d="M1319 903L1309 820L1207 820Z" fill="#0f721f" stroke="#0f721f"></path><path d="M900 892L995 916L914 806Z" fill="#0e1c0d" stroke="#0e1c0d"></path><path d="M1309 218L1205 174L1189 272Z" fill="#0f721f" stroke="#0f721f"></path><path d="M810 871L900 892L840 799Z" fill="#00ef00" stroke="#00ef00"></path><path d="M840 799L900 892L914 806Z" fill="#00d514" stroke="#00d514"></path><path d="M1383 427L1360 269L1321 328Z" fill="#0f721f" stroke="#0f721f"></path><path d="M1321 328L1309 218L1189 272Z" fill="#113014" stroke="#113014"></path><path d="M1483 411L1360 269L1383 427Z" fill="#00bb1c" stroke="#00bb1c"></path><path d="M1360 269L1309 218L1321 328Z" fill="#125b1c" stroke="#125b1c"></path><path d="M961 77L897 159L988 208Z" fill="#00d514" stroke="#00d514"></path><path d="M988 208L897 159L935 305Z" fill="#0e1c0d" stroke="#0e1c0d"></path><path d="M859 137L897 159L961 77Z" fill="#00bb1c" stroke="#00bb1c"></path><path d="M705 776L810 871L840 799Z" fill="#113014" stroke="#113014"></path><path d="M939 1000L997 1000L995 916Z" fill="#03a21f" stroke="#03a21f"></path><path d="M599 461L695 576L717 540Z" fill="#00bb1c" stroke="#00bb1c"></path><path d="M695 576L640 614L722 709Z" fill="#00ef00" stroke="#00ef00"></path><path d="M722 709L705 776L840 799Z" fill="#124519" stroke="#124519"></path><path d="M621 719L705 776L722 709Z" fill="#00d514" stroke="#00d514"></path><path d="M897 159L806 187L935 305Z" fill="#0a8a20" stroke="#0a8a20"></path><path d="M786 300L674 326L728 421Z" fill="#125b1c" stroke="#125b1c"></path><path d="M728 421L636 411L717 540Z" fill="#113014" stroke="#113014"></path><path d="M1098 909L1204 939L1128 822Z" fill="#03a21f" stroke="#03a21f"></path><path d="M1121 1000L1204 939L1098 909Z" fill="#000200" stroke="#000200"></path><path d="M688 223L674 326L786 300Z" fill="#03a21f" stroke="#03a21f"></path><path d="M1309 820L1406 797L1320 702Z" fill="#000200" stroke="#000200"></path><path d="M1538 574L1528 526L1417 597Z" fill="#113014" stroke="#113014"></path><path d="M1319 903L1406 797L1309 820Z" fill="#124519" stroke="#124519"></path><path d="M674 326L636 411L728 421Z" fill="#113014" stroke="#113014"></path><path d="M1528 526L1483 411L1411 496Z" fill="#0e1c0d" stroke="#0e1c0d"></path><path d="M1411 496L1483 411L1383 427Z" fill="#0e1c0d" stroke="#0e1c0d"></path><path d="M1528 526L1411 496L1417 597Z" fill="#0a8a20" stroke="#0a8a20"></path><path d="M897 159L859 137L806 187Z" fill="#00bb1c" stroke="#00bb1c"></path><path d="M1061 70L988 208L1110 171Z" fill="#000200" stroke="#000200"></path><path d="M1204 939L1319 903L1207 820Z" fill="#000200" stroke="#000200"></path><path d="M526 437L599 461L636 411Z" fill="#00d514" stroke="#00d514"></path><path d="M636 411L599 461L717 540Z" fill="#00bb1c" stroke="#00bb1c"></path><path d="M1224 89L1110 171L1205 174Z" fill="#0a8a20" stroke="#0a8a20"></path><path d="M1224 89L1061 70L1110 171Z" fill="#0e1c0d" stroke="#0e1c0d"></path><path d="M1061 70L961 77L988 208Z" fill="#0f721f" stroke="#0f721f"></path><path d="M939 1000L995 916L900 892Z" fill="#124519" stroke="#124519"></path><path d="M995 916L997 1000L1098 909Z" fill="#125b1c" stroke="#125b1c"></path><path d="M997 1000L1121 1000L1098 909Z" fill="#0a8a20" stroke="#0a8a20"></path><path d="M1204 939L1280 1000L1319 903Z" fill="#03a21f" stroke="#03a21f"></path><path d="M1508 675L1417 597L1390 696Z" fill="#03a21f" stroke="#03a21f"></path><path d="M1460 826L1508 675L1406 797Z" fill="#124519" stroke="#124519"></path><path d="M1406 797L1508 675L1390 696Z" fill="#00bb1c" stroke="#00bb1c"></path><path d="M640 614L621 719L722 709Z" fill="#125b1c" stroke="#125b1c"></path><path d="M705 776L720 933L810 871Z" fill="#0e1c0d" stroke="#0e1c0d"></path><path d="M539 672L621 719L640 614Z" fill="#00ef00" stroke="#00ef00"></path><path d="M1316 119L1205 174L1309 218Z" fill="#0f721f" stroke="#0f721f"></path><path d="M1316 119L1224 89L1205 174Z" fill="#124519" stroke="#124519"></path><path d="M1316 119L1309 218L1401 179Z" fill="#0f721f" stroke="#0f721f"></path><path d="M797 1000L939 1000L900 892Z" fill="#00d514" stroke="#00d514"></path><path d="M797 1000L900 892L810 871Z" fill="#03a21f" stroke="#03a21f"></path><path d="M1508 675L1538 574L1417 597Z" fill="#03a21f" stroke="#03a21f"></path><path d="M806 187L688 223L786 300Z" fill="#0a8a20" stroke="#0a8a20"></path><path d="M674 326L589 318L636 411Z" fill="#00d514" stroke="#00d514"></path><path d="M790 122L688 223L806 187Z" fill="#00bb1c" stroke="#00bb1c"></path><path d="M790 122L806 187L859 137Z" fill="#00ef00" stroke="#00ef00"></path><path d="M1121 1000L1196 1000L1204 939Z" fill="#03a21f" stroke="#03a21f"></path><path d="M1401 179L1309 218L1360 269Z" fill="#00bb1c" stroke="#00bb1c"></path><path d="M804 0L790 122L859 137Z" fill="#0e1c0d" stroke="#0e1c0d"></path><path d="M1493 204L1401 179L1360 269Z" fill="#000200" stroke="#000200"></path><path d="M1518 309L1360 269L1483 411Z" fill="#113014" stroke="#113014"></path><path d="M1429 902L1406 797L1319 903Z" fill="#000200" stroke="#000200"></path><path d="M1429 902L1460 826L1406 797Z" fill="#00d514" stroke="#00d514"></path><path d="M1591 461L1483 411L1528 526Z" fill="#03a21f" stroke="#03a21f"></path><path d="M1578 331L1518 309L1483 411Z" fill="#00d514" stroke="#00d514"></path><path d="M588 221L674 326L688 223Z" fill="#0e1c0d" stroke="#0e1c0d"></path><path d="M588 221L589 318L674 326Z" fill="#113014" stroke="#113014"></path><path d="M1196 1000L1280 1000L1204 939Z" fill="#0e1c0d" stroke="#0e1c0d"></path><path d="M562 818L720 933L705 776Z" fill="#125b1c" stroke="#125b1c"></path><path d="M1397 1000L1429 902L1319 903Z" fill="#03a21f" stroke="#03a21f"></path><path d="M720 933L797 1000L810 871Z" fill="#0e1c0d" stroke="#0e1c0d"></path><path d="M508 517L524 562L599 461Z" fill="#0f721f" stroke="#0f721f"></path><path d="M599 461L524 562L640 614Z" fill="#124519" stroke="#124519"></path><path d="M621 719L562 818L705 776Z" fill="#00d514" stroke="#00d514"></path><path d="M524 562L539 672L640 614Z" fill="#00d514" stroke="#00d514"></path><path d="M1061 70L1013 0L961 77Z" fill="#00ef00" stroke="#00ef00"></path><path d="M961 77L940 0L859 137Z" fill="#000200" stroke="#000200"></path><path d="M1107 0L1013 0L1061 70Z" fill="#00bb1c" stroke="#00bb1c"></path><path d="M1107 0L1061 70L1224 89Z" fill="#125b1c" stroke="#125b1c"></path><path d="M1192 0L1107 0L1224 89Z" fill="#00d514" stroke="#00d514"></path><path d="M1596 578L1528 526L1538 574Z" fill="#113014" stroke="#113014"></path><path d="M1596 578L1591 461L1528 526Z" fill="#124519" stroke="#124519"></path><path d="M1596 578L1538 574L1508 675Z" fill="#124519" stroke="#124519"></path><path d="M589 318L526 437L636 411Z" fill="#00ef00" stroke="#00ef00"></path><path d="M1597 707L1508 675L1572 811Z" fill="#000200" stroke="#000200"></path><path d="M1597 707L1596 578L1508 675Z" fill="#00ef00" stroke="#00ef00"></path><path d="M1629 240L1493 204L1518 309Z" fill="#00d514" stroke="#00d514"></path><path d="M1518 309L1493 204L1360 269Z" fill="#03a21f" stroke="#03a21f"></path><path d="M1401 179L1425 85L1316 119Z" fill="#124519" stroke="#124519"></path><path d="M1286 0L1192 0L1224 89Z" fill="#0a8a20" stroke="#0a8a20"></path><path d="M1013 0L940 0L961 77Z" fill="#00bb1c" stroke="#00bb1c"></path><path d="M526 437L508 517L599 461Z" fill="#0f721f" stroke="#0f721f"></path><path d="M524 562L410 677L539 672Z" fill="#0e1c0d" stroke="#0e1c0d"></path><path d="M1286 0L1224 89L1316 119Z" fill="#0a8a20" stroke="#0a8a20"></path><path d="M1591 461L1578 331L1483 411Z" fill="#0e1c0d" stroke="#0e1c0d"></path><path d="M601 121L588 221L688 223Z" fill="#0e1c0d" stroke="#0e1c0d"></path><path d="M589 318L459 277L526 437Z" fill="#000200" stroke="#000200"></path><path d="M704 83L688 223L790 122Z" fill="#000200" stroke="#000200"></path><path d="M1397 1000L1482 908L1429 902Z" fill="#03a21f" stroke="#03a21f"></path><path d="M1429 902L1482 908L1460 826Z" fill="#00bb1c" stroke="#00bb1c"></path><path d="M1572 811L1508 675L1460 826Z" fill="#00d514" stroke="#00d514"></path><path d="M1604 105L1463 137L1493 204Z" fill="#00bb1c" stroke="#00bb1c"></path><path d="M1493 204L1463 137L1401 179Z" fill="#03a21f" stroke="#03a21f"></path><path d="M535 797L621 719L539 672Z" fill="#0a8a20" stroke="#0a8a20"></path><path d="M535 797L562 818L621 719Z" fill="#00d514" stroke="#00d514"></path><path d="M720 933L681 1000L797 1000Z" fill="#0f721f" stroke="#0f721f"></path><path d="M804 0L704 83L790 122Z" fill="#000200" stroke="#000200"></path><path d="M1280 1000L1397 1000L1319 903Z" fill="#125b1c" stroke="#125b1c"></path><path d="M1708 537L1628 439L1591 461Z" fill="#00d514" stroke="#00d514"></path><path d="M1591 461L1628 439L1578 331Z" fill="#00bb1c" stroke="#00bb1c"></path><path d="M1708 537L1591 461L1596 578Z" fill="#0a8a20" stroke="#0a8a20"></path><path d="M1463 137L1425 85L1401 179Z" fill="#125b1c" stroke="#125b1c"></path><path d="M1372 0L1286 0L1316 119Z" fill="#124519" stroke="#124519"></path><path d="M419 765L535 797L539 672Z" fill="#00d514" stroke="#00d514"></path><path d="M1604 868L1572 811L1482 908Z" fill="#00d514" stroke="#00d514"></path><path d="M1482 908L1572 811L1460 826Z" fill="#03a21f" stroke="#03a21f"></path><path d="M940 0L804 0L859 137Z" fill="#00d514" stroke="#00d514"></path><path d="M560 931L720 933L562 818Z" fill="#000200" stroke="#000200"></path><path d="M623 1000L681 1000L720 933Z" fill="#0f721f" stroke="#0f721f"></path><path d="M704 83L601 121L688 223Z" fill="#03a21f" stroke="#03a21f"></path><path d="M588 221L459 277L589 318Z" fill="#125b1c" stroke="#125b1c"></path><path d="M590 0L601 121L704 83Z" fill="#03a21f" stroke="#03a21f"></path><path d="M1487 0L1372 0L1425 85Z" fill="#113014" stroke="#113014"></path><path d="M1425 85L1372 0L1316 119Z" fill="#000200" stroke="#000200"></path><path d="M1720 716L1683 610L1597 707Z" fill="#00d514" stroke="#00d514"></path><path d="M1597 707L1683 610L1596 578Z" fill="#00bb1c" stroke="#00bb1c"></path><path d="M1708 537L1671 374L1628 439Z" fill="#125b1c" stroke="#125b1c"></path><path d="M1628 439L1671 374L1578 331Z" fill="#00d514" stroke="#00d514"></path><path d="M1578 331L1629 240L1518 309Z" fill="#00ef00" stroke="#00ef00"></path><path d="M1463 137L1487 0L1425 85Z" fill="#125b1c" stroke="#125b1c"></path><path d="M477 900L560 931L562 818Z" fill="#124519" stroke="#124519"></path><path d="M560 931L623 1000L720 933Z" fill="#00d514" stroke="#00d514"></path><path d="M804 0L712 0L704 83Z" fill="#00ef00" stroke="#00ef00"></path><path d="M1593 1000L1604 868L1482 908Z" fill="#00d514" stroke="#00d514"></path><path d="M1705 811L1720 716L1597 707Z" fill="#0f721f" stroke="#0f721f"></path><path d="M1671 374L1629 240L1578 331Z" fill="#000200" stroke="#000200"></path><path d="M1397 1000L1511 1000L1482 908Z" fill="#0f721f" stroke="#0f721f"></path><path d="M468 161L459 277L588 221Z" fill="#00ef00" stroke="#00ef00"></path><path d="M526 437L407 427L508 517Z" fill="#124519" stroke="#124519"></path><path d="M392 608L410 677L524 562Z" fill="#125b1c" stroke="#125b1c"></path><path d="M1772 606L1708 537L1683 610Z" fill="#00d514" stroke="#00d514"></path><path d="M1683 610L1708 537L1596 578Z" fill="#000200" stroke="#000200"></path><path d="M459 277L407 427L526 437Z" fill="#03a21f" stroke="#03a21f"></path><path d="M535 797L477 900L562 818Z" fill="#124519" stroke="#124519"></path><path d="M392 608L524 562L508 517Z" fill="#125b1c" stroke="#125b1c"></path><path d="M381 486L392 608L508 517Z" fill="#0a8a20" stroke="#0a8a20"></path><path d="M316 494L381 486L312 412Z" fill="#0a8a20" stroke="#0a8a20"></path><path d="M407 427L381 486L508 517Z" fill="#00d514" stroke="#00d514"></path><path d="M410 677L419 765L539 672Z" fill="#0f721f" stroke="#0f721f"></path><path d="M381 889L419 765L314 768Z" fill="#124519" stroke="#124519"></path><path d="M419 765L477 900L535 797Z" fill="#00d514" stroke="#00d514"></path><path d="M560 931L524 1000L623 1000Z" fill="#00ef00" stroke="#00ef00"></path><path d="M1604 105L1487 0L1463 137Z" fill="#00d514" stroke="#00d514"></path><path d="M1705 811L1597 707L1572 811Z" fill="#124519" stroke="#124519"></path><path d="M1705 811L1572 811L1604 868Z" fill="#113014" stroke="#113014"></path><path d="M1678 199L1604 105L1629 240Z" fill="#125b1c" stroke="#125b1c"></path><path d="M1629 240L1604 105L1493 204Z" fill="#113014" stroke="#113014"></path><path d="M601 121L468 161L588 221Z" fill="#00ef00" stroke="#00ef00"></path><path d="M459 277L407 281L407 427Z" fill="#0f721f" stroke="#0f721f"></path><path d="M493 96L468 161L601 121Z" fill="#000200" stroke="#000200"></path><path d="M419 199L407 281L459 277Z" fill="#0e1c0d" stroke="#0e1c0d"></path><path d="M1723 869L1705 811L1604 868Z" fill="#00bb1c" stroke="#00bb1c"></path><path d="M1734 272L1678 199L1629 240Z" fill="#000200" stroke="#000200"></path><path d="M1734 272L1629 240L1671 374Z" fill="#03a21f" stroke="#03a21f"></path><path d="M477 900L524 1000L560 931Z" fill="#0e1c0d" stroke="#0e1c0d"></path><path d="M1511 1000L1593 1000L1482 908Z" fill="#00ef00" stroke="#00ef00"></path><path d="M712 0L590 0L704 83Z" fill="#03a21f" stroke="#03a21f"></path><path d="M590 0L493 96L601 121Z" fill="#0f721f" stroke="#0f721f"></path><path d="M468 161L419 199L459 277Z" fill="#113014" stroke="#113014"></path><path d="M1720 716L1772 606L1683 610Z" fill="#0a8a20" stroke="#0a8a20"></path><path d="M1777 298L1734 272L1671 374Z" fill="#00d514" stroke="#00d514"></path><path d="M1765 720L1772 606L1720 716Z" fill="#03a21f" stroke="#03a21f"></path><path d="M385 84L419 199L468 161Z" fill="#0f721f" stroke="#0f721f"></path><path d="M1777 298L1671 374L1832 374Z" fill="#00bb1c" stroke="#00bb1c"></path><path d="M1705 811L1765 720L1720 716Z" fill="#0f721f" stroke="#0f721f"></path><path d="M1770 819L1765 720L1705 811Z" fill="#113014" stroke="#113014"></path><path d="M312 412L381 486L407 427Z" fill="#125b1c" stroke="#125b1c"></path><path d="M381 486L316 494L392 608Z" fill="#000200" stroke="#000200"></path><path d="M392 608L294 609L410 677Z" fill="#00bb1c" stroke="#00bb1c"></path><path d="M312 412L407 427L312 330Z" fill="#125b1c" stroke="#125b1c"></path><path d="M1593 1000L1723 869L1604 868Z" fill="#03a21f" stroke="#03a21f"></path><path d="M1764 97L1674 103L1678 199Z" fill="#113014" stroke="#113014"></path><path d="M1678 199L1674 103L1604 105Z" fill="#00ef00" stroke="#00ef00"></path><path d="M1604 105L1612 0L1487 0Z" fill="#113014" stroke="#113014"></path><path d="M312 330L407 427L407 281Z" fill="#125b1c" stroke="#125b1c"></path><path d="M1819 487L1671 374L1708 537Z" fill="#00ef00" stroke="#00ef00"></path><path d="M1734 272L1791 185L1678 199Z" fill="#00ef00" stroke="#00ef00"></path><path d="M419 765L381 889L477 900Z" fill="#0e1c0d" stroke="#0e1c0d"></path><path d="M477 900L398 1000L524 1000Z" fill="#113014" stroke="#113014"></path><path d="M314 768L419 765L410 677Z" fill="#0e1c0d" stroke="#0e1c0d"></path><path d="M1772 606L1819 487L1708 537Z" fill="#00bb1c" stroke="#00bb1c"></path><path d="M1867 621L1819 487L1772 606Z" fill="#113014" stroke="#113014"></path><path d="M235 502L294 609L316 494Z" fill="#00d514" stroke="#00d514"></path><path d="M316 494L294 609L392 608Z" fill="#03a21f" stroke="#03a21f"></path><path d="M1723 869L1770 819L1705 811Z" fill="#0e1c0d" stroke="#0e1c0d"></path><path d="M1765 720L1867 621L1772 606Z" fill="#00ef00" stroke="#00ef00"></path><path d="M1674 103L1612 0L1604 105Z" fill="#124519" stroke="#124519"></path><path d="M262 237L312 330L407 281Z" fill="#00ef00" stroke="#00ef00"></path><path d="M195 706L273 702L294 609Z" fill="#03a21f" stroke="#03a21f"></path><path d="M262 237L407 281L419 199Z" fill="#124519" stroke="#124519"></path><path d="M273 702L314 768L410 677Z" fill="#125b1c" stroke="#125b1c"></path><path d="M590 0L487 0L493 96Z" fill="#124519" stroke="#124519"></path><path d="M493 96L385 84L468 161Z" fill="#00d514" stroke="#00d514"></path><path d="M1819 487L1832 374L1671 374Z" fill="#0f721f" stroke="#0f721f"></path><path d="M1777 298L1791 185L1734 272Z" fill="#03a21f" stroke="#03a21f"></path><path d="M235 502L316 494L240 429Z" fill="#124519" stroke="#124519"></path><path d="M294 609L273 702L410 677Z" fill="#03a21f" stroke="#03a21f"></path><path d="M284 1000L398 1000L381 889Z" fill="#0e1c0d" stroke="#0e1c0d"></path><path d="M295 882L381 889L314 768Z" fill="#00bb1c" stroke="#00bb1c"></path><path d="M381 889L398 1000L477 900Z" fill="#00bb1c" stroke="#00bb1c"></path><path d="M487 0L385 84L493 96Z" fill="#113014" stroke="#113014"></path><path d="M1895 314L1791 185L1777 298Z" fill="#0f721f" stroke="#0f721f"></path><path d="M1674 103L1690 0L1612 0Z" fill="#00bb1c" stroke="#00bb1c"></path><path d="M1906 739L1867 621L1765 720Z" fill="#113014" stroke="#113014"></path><path d="M1819 487L1871 416L1832 374Z" fill="#03a21f" stroke="#03a21f"></path><path d="M1723 869L1775 932L1770 819Z" fill="#125b1c" stroke="#125b1c"></path><path d="M1770 819L1906 739L1765 720Z" fill="#00d514" stroke="#00d514"></path><path d="M1733 1000L1775 932L1723 869Z" fill="#00d514" stroke="#00d514"></path><path d="M1593 1000L1733 1000L1723 869Z" fill="#0e1c0d" stroke="#0e1c0d"></path><path d="M240 429L312 412L312 330Z" fill="#124519" stroke="#124519"></path><path d="M240 429L316 494L312 412Z" fill="#0e1c0d" stroke="#0e1c0d"></path><path d="M1912 464L1871 416L1819 487Z" fill="#000200" stroke="#000200"></path><path d="M1832 374L1895 314L1777 298Z" fill="#0e1c0d" stroke="#0e1c0d"></path><path d="M236 311L240 429L312 330Z" fill="#0e1c0d" stroke="#0e1c0d"></path><path d="M1764 97L1690 0L1674 103Z" fill="#03a21f" stroke="#03a21f"></path><path d="M1776 0L1764 97L1863 0Z" fill="#124519" stroke="#124519"></path><path d="M1791 185L1764 97L1678 199Z" fill="#03a21f" stroke="#03a21f"></path><path d="M213 789L295 882L314 768Z" fill="#125b1c" stroke="#125b1c"></path><path d="M213 789L314 768L273 702Z" fill="#124519" stroke="#124519"></path><path d="M274 139L262 237L419 199Z" fill="#000200" stroke="#000200"></path><path d="M103 559L201 565L235 502Z" fill="#00bb1c" stroke="#00bb1c"></path><path d="M262 237L236 311L312 330Z" fill="#00d514" stroke="#00d514"></path><path d="M130 661L201 565L103 559Z" fill="#03a21f" stroke="#03a21f"></path><path d="M235 502L201 565L294 609Z" fill="#124519" stroke="#124519"></path><path d="M1867 621L1912 464L1819 487Z" fill="#00ef00" stroke="#00ef00"></path><path d="M1871 416L1895 314L1832 374Z" fill="#00ef00" stroke="#00ef00"></path><path d="M385 84L274 139L419 199Z" fill="#000200" stroke="#000200"></path><path d="M487 0L384 0L385 84Z" fill="#00ef00" stroke="#00ef00"></path><path d="M1733 1000L1780 1000L1775 932Z" fill="#125b1c" stroke="#125b1c"></path><path d="M1921 763L1906 739L1770 819Z" fill="#00bb1c" stroke="#00bb1c"></path><path d="M2000 615L2000 480L1912 464Z" fill="#124519" stroke="#124519"></path><path d="M2000 366L1895 314L1871 416Z" fill="#0f721f" stroke="#0f721f"></path><path d="M1921 763L1770 819L1887 940Z" fill="#0e1c0d" stroke="#0e1c0d"></path><path d="M305 0L274 139L385 84Z" fill="#0e1c0d" stroke="#0e1c0d"></path><path d="M262 237L233 203L236 311Z" fill="#00d514" stroke="#00d514"></path><path d="M201 565L195 706L294 609Z" fill="#125b1c" stroke="#125b1c"></path><path d="M195 706L213 789L273 702Z" fill="#00d514" stroke="#00d514"></path><path d="M295 882L284 1000L381 889Z" fill="#125b1c" stroke="#125b1c"></path><path d="M274 139L233 203L262 237Z" fill="#113014" stroke="#113014"></path><path d="M103 559L235 502L80 536Z" fill="#113014" stroke="#113014"></path><path d="M1887 940L1770 819L1775 932Z" fill="#03a21f" stroke="#03a21f"></path><path d="M2000 615L1912 464L1867 621Z" fill="#124519" stroke="#124519"></path><path d="M1904 168L1764 97L1791 185Z" fill="#00ef00" stroke="#00ef00"></path><path d="M1764 97L1776 0L1690 0Z" fill="#113014" stroke="#113014"></path><path d="M172 896L284 1000L295 882Z" fill="#0e1c0d" stroke="#0e1c0d"></path><path d="M305 0L231 131L274 139Z" fill="#00ef00" stroke="#00ef00"></path><path d="M274 139L231 131L233 203Z" fill="#113014" stroke="#113014"></path><path d="M235 502L82 410L80 536Z" fill="#113014" stroke="#113014"></path><path d="M384 0L305 0L385 84Z" fill="#0a8a20" stroke="#0a8a20"></path><path d="M1895 314L1904 168L1791 185Z" fill="#000200" stroke="#000200"></path><path d="M2000 265L1904 168L1895 314Z" fill="#00ef00" stroke="#00ef00"></path><path d="M2000 366L1871 416L1912 464Z" fill="#0f721f" stroke="#0f721f"></path><path d="M1780 1000L1887 940L1775 932Z" fill="#00d514" stroke="#00d514"></path><path d="M195 706L90 783L213 789Z" fill="#00d514" stroke="#00d514"></path><path d="M213 789L172 896L295 882Z" fill="#03a21f" stroke="#03a21f"></path><path d="M201 565L130 661L195 706Z" fill="#0f721f" stroke="#0f721f"></path><path d="M240 429L82 410L235 502Z" fill="#0f721f" stroke="#0f721f"></path><path d="M1867 621L1906 739L2000 693Z" fill="#03a21f" stroke="#03a21f"></path><path d="M2000 615L1867 621L2000 693Z" fill="#00ef00" stroke="#00ef00"></path><path d="M2000 693L1906 739L1921 763Z" fill="#0f721f" stroke="#0f721f"></path><path d="M240 429L236 311L82 410Z" fill="#0e1c0d" stroke="#0e1c0d"></path><path d="M133 897L172 896L213 789Z" fill="#0a8a20" stroke="#0a8a20"></path><path d="M133 897L213 789L90 783Z" fill="#125b1c" stroke="#125b1c"></path><path d="M2000 802L2000 693L1921 763Z" fill="#125b1c" stroke="#125b1c"></path><path d="M2000 480L2000 366L1912 464Z" fill="#00d514" stroke="#00d514"></path><path d="M2000 184L1926 117L1904 168Z" fill="#0e1c0d" stroke="#0e1c0d"></path><path d="M1904 168L1926 117L1764 97Z" fill="#00ef00" stroke="#00ef00"></path><path d="M1926 117L1863 0L1764 97Z" fill="#0e1c0d" stroke="#0e1c0d"></path><path d="M82 410L236 311L110 266Z" fill="#125b1c" stroke="#125b1c"></path><path d="M103 559L0 604L130 661Z" fill="#125b1c" stroke="#125b1c"></path><path d="M1887 940L2000 802L1921 763Z" fill="#00d514" stroke="#00d514"></path><path d="M2000 366L2000 265L1895 314Z" fill="#00ef00" stroke="#00ef00"></path><path d="M110 266L236 311L233 203Z" fill="#113014" stroke="#113014"></path><path d="M1780 1000L1924 1000L1887 940Z" fill="#0f721f" stroke="#0f721f"></path><path d="M1887 940L2000 930L2000 802Z" fill="#0e1c0d" stroke="#0e1c0d"></path><path d="M92 218L110 266L233 203Z" fill="#0a8a20" stroke="#0a8a20"></path><path d="M92 218L233 203L231 131Z" fill="#00d514" stroke="#00d514"></path><path d="M305 0L222 0L231 131Z" fill="#0a8a20" stroke="#0a8a20"></path><path d="M90 783L195 706L130 661Z" fill="#125b1c" stroke="#125b1c"></path><path d="M172 896L171 1000L284 1000Z" fill="#124519" stroke="#124519"></path><path d="M0 714L90 783L130 661Z" fill="#0a8a20" stroke="#0a8a20"></path><path d="M106 1000L171 1000L133 897Z" fill="#00d514" stroke="#00d514"></path><path d="M133 897L171 1000L172 896Z" fill="#0e1c0d" stroke="#0e1c0d"></path><path d="M2000 265L2000 184L1904 168Z" fill="#125b1c" stroke="#125b1c"></path><path d="M1926 117L2000 0L1863 0Z" fill="#125b1c" stroke="#125b1c"></path><path d="M69 103L92 218L231 131Z" fill="#00d514" stroke="#00d514"></path><path d="M0 264L0 400L82 410Z" fill="#0e1c0d" stroke="#0e1c0d"></path><path d="M1924 1000L2000 930L1887 940Z" fill="#0a8a20" stroke="#0a8a20"></path><path d="M2000 184L2000 80L1926 117Z" fill="#03a21f" stroke="#03a21f"></path><path d="M1924 1000L2000 1000L2000 930Z" fill="#124519" stroke="#124519"></path><path d="M0 400L0 524L82 410Z" fill="#0e1c0d" stroke="#0e1c0d"></path><path d="M82 410L0 524L80 536Z" fill="#124519" stroke="#124519"></path><path d="M80 536L0 604L103 559Z" fill="#000200" stroke="#000200"></path><path d="M0 874L106 1000L133 897Z" fill="#124519" stroke="#124519"></path><path d="M0 874L133 897L90 783Z" fill="#00d514" stroke="#00d514"></path><path d="M0 524L0 604L80 536Z" fill="#00d514" stroke="#00d514"></path><path d="M0 264L82 410L110 266Z" fill="#000200" stroke="#000200"></path><path d="M0 604L0 714L130 661Z" fill="#0a8a20" stroke="#0a8a20"></path><path d="M222 0L69 103L231 131Z" fill="#00d514" stroke="#00d514"></path><path d="M92 218L0 264L110 266Z" fill="#125b1c" stroke="#125b1c"></path><path d="M2000 80L2000 0L1926 117Z" fill="#00d514" stroke="#00d514"></path><path d="M0 714L0 801L90 783Z" fill="#00d514" stroke="#00d514"></path><path d="M0 222L0 264L92 218Z" fill="#03a21f" stroke="#03a21f"></path><path d="M0 135L0 222L92 218Z" fill="#113014" stroke="#113014"></path><path d="M0 801L0 874L90 783Z" fill="#03a21f" stroke="#03a21f"></path><path d="M222 0L76 0L69 103Z" fill="#125b1c" stroke="#125b1c"></path><path d="M69 103L0 135L92 218Z" fill="#00ef00" stroke="#00ef00"></path><path d="M0 0L0 135L69 103Z" fill="#0f721f" stroke="#0f721f"></path><path d="M0 874L0 1000L106 1000Z" fill="#124519" stroke="#124519"></path><path d="M76 0L0 0L69 103Z" fill="#00ef00" stroke="#00ef00"></path></g></svg>